<svg width="400" height="320" viewBox="0 0 400 320" fill="none" xmlns="http://www.w3.org/2000/svg">
<path opacity="0.3" fill-rule="evenodd" clip-rule="evenodd" d="M124 88.0371L156 120.062H124.924C124.414 120.062 124 119.648 124 119.138V88.0371Z" fill="white"/>
<rect opacity="0.8" width="167.17" height="166.899" rx="17.2032" transform="matrix(0.278592 -0.96041 0.960411 0.278587 1 207.552)" fill="#CCDDFF"/>
<rect width="147.715" height="147.475" rx="15.2011" transform="matrix(-0.236723 -0.971577 0.971576 -0.236728 252.035 255.585)" fill="#E5EEFF"/>
<path d="M214.01 158.981L202.334 148.35L204.062 146.749L218.667 160.093L204.062 173.436L202.334 171.835L214.01 161.205H181.334V158.981H214.01Z" fill="#0055FF"/>
<rect x="64" y="141.411" width="40" height="2.66872" fill="white"/>
<rect x="64" y="157.424" width="40" height="2.66872" fill="white"/>
<rect x="64" y="173.436" width="40" height="2.6687" fill="white"/>
<rect x="64" y="189.448" width="68" height="2.66873" fill="white"/>
<rect x="64" y="205.461" width="68" height="2.66872" fill="white"/>
<path d="M139.97 85C140.996 85 141.977 85.4174 142.689 86.1562L171.39 115.955C172.068 116.659 172.446 117.598 172.446 118.574L172.446 228.877C172.446 232.795 169.426 236 165.735 236L61.713 236C58.022 236 55.002 232.795 55.002 228.877L55.0019 92.1229C55.0019 88.2055 58.0219 85.0003 61.713 85.0003L139.97 85Z" fill="white"/>
<path d="M156.932 126.509H70.7097C68.635 126.509 66.9531 128.191 66.9531 130.265C66.9531 132.34 68.635 134.022 70.7097 134.022H156.932C159.007 134.022 160.688 132.34 160.688 130.265C160.688 128.191 159.007 126.509 156.932 126.509Z" fill="#0055FF"/>
<path d="M156.932 145.631H70.7094C68.6348 145.631 66.9529 147.313 66.9529 149.387C66.9529 151.462 68.6347 153.144 70.7094 153.144H156.932C159.006 153.144 160.688 151.462 160.688 149.387C160.688 147.313 159.006 145.631 156.932 145.631Z" fill="#CED6E0"/>
<path d="M156.926 164.275H70.1012C68.0163 164.275 66.3262 165.966 66.3262 168.05C66.3262 170.135 68.0163 171.825 70.1012 171.825H156.926C159.011 171.825 160.701 170.135 160.701 168.05C160.701 165.966 159.011 164.275 156.926 164.275Z" fill="#CED6E0"/>
<path d="M156.926 183.15H70.1012C68.0163 183.15 66.3262 184.841 66.3262 186.925C66.3262 189.01 68.0163 190.7 70.1012 190.7H156.926C159.011 190.7 160.701 189.01 160.701 186.925C160.701 184.841 159.011 183.15 156.926 183.15Z" fill="#CED6E0"/>
<path d="M156.926 202.025H70.1012C68.0163 202.025 66.3262 203.716 66.3262 205.8C66.3262 207.885 68.0163 209.575 70.1012 209.575H156.926C159.011 209.575 160.701 207.885 160.701 205.8C160.701 203.716 159.011 202.025 156.926 202.025Z" fill="#CED6E0"/>
<path fill-rule="evenodd" clip-rule="evenodd" d="M139.968 88.775L168.669 118.574V228.877C168.669 230.925 167.131 232.225 165.733 232.225L61.711 232.225C60.3134 232.225 58.775 230.925 58.775 228.877L58.775 92.1229C58.775 90.0756 60.3134 88.7753 61.711 88.7753L139.968 88.775ZM142.687 86.1562C141.975 85.4174 140.994 85 139.968 85L61.711 85.0003C58.02 85.0003 55 88.2055 55 92.1229L55 228.877C55 232.795 58.02 236 61.711 236L165.733 236C169.424 236 172.444 232.795 172.444 228.877V118.574C172.444 117.598 172.066 116.659 171.388 115.955L142.687 86.1562Z" fill="#DDDDDD"/>
<path d="M172.444 118.556L138.889 85V118.556L172.444 118.556Z" fill="#DDDDDD"/>
<path d="M345.97 85C346.996 85 347.977 85.4174 348.689 86.1562L377.39 115.955C378.068 116.659 378.446 117.598 378.446 118.574L378.446 228.877C378.446 232.795 375.426 236 371.735 236L267.713 236C264.022 236 261.002 232.795 261.002 228.877L261.002 92.1229C261.002 88.2055 264.022 85.0003 267.713 85.0003L345.97 85Z" fill="white"/>
<path d="M362.932 126.509H276.71C274.635 126.509 272.953 128.191 272.953 130.265C272.953 132.34 274.635 134.022 276.71 134.022H362.932C365.007 134.022 366.688 132.34 366.688 130.265C366.688 128.191 365.007 126.509 362.932 126.509Z" fill="#0055FF"/>
<path d="M362.932 145.631H276.709C274.635 145.631 272.953 147.313 272.953 149.387C272.953 151.462 274.635 153.144 276.709 153.144H362.932C365.006 153.144 366.688 151.462 366.688 149.387C366.688 147.313 365.006 145.631 362.932 145.631Z" fill="#CED6E0"/>
<path d="M362.926 164.275H276.101C274.016 164.275 272.326 165.966 272.326 168.05C272.326 170.135 274.016 171.825 276.101 171.825H362.926C365.011 171.825 366.701 170.135 366.701 168.05C366.701 165.966 365.011 164.275 362.926 164.275Z" fill="#CED6E0"/>
<path d="M362.926 183.15H276.101C274.016 183.15 272.326 184.841 272.326 186.925C272.326 189.01 274.016 190.7 276.101 190.7H362.926C365.011 190.7 366.701 189.01 366.701 186.925C366.701 184.841 365.011 183.15 362.926 183.15Z" fill="#CED6E0"/>
<path d="M362.926 202.025H276.101C274.016 202.025 272.326 203.716 272.326 205.8C272.326 207.885 274.016 209.575 276.101 209.575H362.926C365.011 209.575 366.701 207.885 366.701 205.8C366.701 203.716 365.011 202.025 362.926 202.025Z" fill="#CED6E0"/>
<path fill-rule="evenodd" clip-rule="evenodd" d="M345.968 88.775L374.669 118.574V228.877C374.669 230.925 373.131 232.225 371.733 232.225L267.711 232.225C266.313 232.225 264.775 230.925 264.775 228.877L264.775 92.1229C264.775 90.0756 266.313 88.7753 267.711 88.7753L345.968 88.775ZM348.687 86.1562C347.975 85.4174 346.994 85 345.968 85L267.711 85.0003C264.02 85.0003 261 88.2055 261 92.1229L261 228.877C261 232.795 264.02 236 267.711 236L371.733 236C375.424 236 378.444 232.795 378.444 228.877V118.574C378.444 117.598 378.066 116.659 377.388 115.955L348.687 86.1562Z" fill="#DDDDDD"/>
<path d="M378.444 118.556L344.889 85V118.556L378.444 118.556Z" fill="#DDDDDD"/>
<path fill-rule="evenodd" clip-rule="evenodd" d="M35.8077 246.074C35.2913 246.592 34.454 246.592 33.9376 246.074C33.4213 245.557 33.4213 244.718 33.9376 244.2L36.7427 241.388C37.2591 240.871 38.0963 240.871 38.6127 241.388C39.1291 241.906 39.1291 242.745 38.6127 243.263L35.8077 246.074ZM27.3873 243.263C26.8709 242.745 26.8709 241.906 27.3873 241.388C27.9037 240.871 28.7409 240.871 29.2573 241.388L32.0624 244.2C32.5787 244.718 32.5787 245.557 32.0624 246.075C31.546 246.592 30.7087 246.592 30.1923 246.075L27.3873 243.263ZM33.9336 249.823C33.4172 249.306 33.4172 248.466 33.9336 247.949C34.45 247.431 35.2872 247.431 35.8036 247.949L38.6087 250.76C39.1251 251.278 39.1251 252.117 38.6087 252.635C38.0923 253.153 37.255 253.153 36.7386 252.635L33.9336 249.823ZM27.3873 252.635C27.9037 253.153 28.7409 253.153 29.2573 252.635L32.0624 249.823C32.5787 249.306 32.5787 248.466 32.0624 247.949C31.546 247.431 30.7087 247.431 30.1923 247.949L27.3873 250.76C26.8709 251.278 26.8709 252.117 27.3873 252.635Z" fill="#FF5975"/>
<path fill-rule="evenodd" clip-rule="evenodd" d="M268.808 63.0745C268.291 63.5921 267.454 63.5921 266.938 63.0745C266.421 62.5568 266.421 61.7176 266.938 61.2L269.743 58.3882C270.259 57.8706 271.096 57.8706 271.613 58.3882C272.129 58.9058 272.129 59.7451 271.613 60.2627L268.808 63.0745ZM260.387 60.2629C259.871 59.7453 259.871 58.906 260.387 58.3884C260.904 57.8708 261.741 57.8708 262.257 58.3884L265.062 61.2001C265.579 61.7178 265.579 62.557 265.062 63.0746C264.546 63.5923 263.709 63.5923 263.192 63.0746L260.387 60.2629ZM266.934 66.8232C266.417 66.3055 266.417 65.4663 266.934 64.9487C267.45 64.431 268.287 64.431 268.804 64.9487L271.609 67.7604C272.125 68.278 272.125 69.1173 271.609 69.6349C271.092 70.1525 270.255 70.1525 269.739 69.6349L266.934 66.8232ZM260.387 69.6349C260.904 70.1525 261.741 70.1525 262.257 69.6349L265.062 66.8232C265.579 66.3055 265.579 65.4663 265.062 64.9487C264.546 64.431 263.709 64.431 263.192 64.9487L260.387 67.7604C259.871 68.278 259.871 69.1173 260.387 69.6349Z" fill="#FF5975"/>
<path fill-rule="evenodd" clip-rule="evenodd" d="M380.808 258.074C380.291 258.592 379.454 258.592 378.938 258.074C378.421 257.557 378.421 256.718 378.938 256.2L381.743 253.388C382.259 252.871 383.096 252.871 383.613 253.388C384.129 253.906 384.129 254.745 383.613 255.263L380.808 258.074ZM372.387 255.263C371.871 254.745 371.871 253.906 372.387 253.388C372.904 252.871 373.741 252.871 374.257 253.388L377.062 256.2C377.579 256.718 377.579 257.557 377.062 258.075C376.546 258.592 375.709 258.592 375.192 258.075L372.387 255.263ZM378.934 261.823C378.417 261.306 378.417 260.466 378.934 259.949C379.45 259.431 380.287 259.431 380.804 259.949L383.609 262.76C384.125 263.278 384.125 264.117 383.609 264.635C383.092 265.153 382.255 265.153 381.739 264.635L378.934 261.823ZM372.387 264.635C372.904 265.153 373.741 265.153 374.257 264.635L377.062 261.823C377.579 261.306 377.579 260.466 377.062 259.949C376.546 259.431 375.709 259.431 375.192 259.949L372.387 262.76C371.871 263.278 371.871 264.117 372.387 264.635Z" fill="#FF5975"/>
<path fill-rule="evenodd" clip-rule="evenodd" d="M70 263.012C70 266.332 67.3137 269.023 64 269.023C60.6863 269.023 58 266.332 58 263.012C58 259.691 60.6863 257 64 257C67.3137 257 70 259.691 70 263.012ZM60.9981 263.011C60.9981 264.672 62.3413 266.017 63.9981 266.017C65.655 266.017 66.9981 264.672 66.9981 263.011C66.9981 261.351 65.655 260.006 63.9981 260.006C62.3413 260.006 60.9981 261.351 60.9981 263.011Z" fill="#3D99F5"/>
<path fill-rule="evenodd" clip-rule="evenodd" d="M239 85.0116C239 88.3316 236.314 91.0231 233 91.0231C229.686 91.0231 227 88.3316 227 85.0116C227 81.6915 229.686 79 233 79C236.314 79 239 81.6915 239 85.0116ZM229.998 85.0115C229.998 86.6715 231.341 88.0173 232.998 88.0173C234.655 88.0173 235.998 86.6715 235.998 85.0115C235.998 83.3515 234.655 82.0057 232.998 82.0057C231.341 82.0057 229.998 83.3515 229.998 85.0115Z" fill="#3D99F5"/>
<rect width="69.4459" height="40.9144" rx="5.93802" transform="matrix(1 0 -0.000740073 1 25.0312 178)" fill="#F23030"/>
<path d="M35.8184 209L35.8328 189.522H42.5246C43.6 189.522 44.6057 189.632 45.5416 189.851C46.4775 190.05 47.2938 190.399 47.9905 190.896C48.6872 191.374 49.2344 192.022 49.6321 192.838C50.0498 193.635 50.2582 194.621 50.2573 195.796C50.2564 196.931 50.0466 197.917 49.6277 198.753C49.2288 199.59 48.6806 200.277 47.9832 200.815C47.2857 201.352 46.4788 201.751 45.5625 202.009C44.6462 202.268 43.6702 202.398 42.6346 202.398H40.2148L40.2099 209H35.8184ZM40.2174 198.903H42.3683C44.7582 198.903 45.9539 197.867 45.9554 195.796C45.9562 194.78 45.6381 194.063 45.0011 193.645C44.3641 193.227 43.4481 193.017 42.2531 193.017H40.2217L40.2174 198.903ZM53.6144 209L53.6288 189.522H59.1256C60.6193 189.522 61.9635 189.711 63.1582 190.09C64.3529 190.468 65.3781 191.056 66.2339 191.852C67.0897 192.629 67.7462 193.625 68.2034 194.84C68.6605 196.055 68.8885 197.499 68.8872 199.171C68.886 200.844 68.6559 202.298 68.1969 203.533C67.7379 204.768 67.0899 205.794 66.2528 206.61C65.4158 207.407 64.4096 208.004 63.2342 208.403C62.0788 208.801 60.7841 209 59.3502 209H53.6144ZM58.0085 205.445H58.845C59.6814 205.445 60.4383 205.335 61.1156 205.116C61.7929 204.897 62.3708 204.549 62.8491 204.071C63.3274 203.573 63.6964 202.926 63.9559 202.129C64.2353 201.332 64.3754 200.347 64.3763 199.171C64.3771 198.016 64.2384 197.05 63.9602 196.274C63.7019 195.477 63.3339 194.85 62.8563 194.392C62.3786 193.914 61.8013 193.575 61.1243 193.376C60.4473 193.177 59.6906 193.077 58.8541 193.077H58.0177L58.0085 205.445ZM72.5773 209L72.5918 189.522H84.8699L84.8672 193.227H76.9805L76.9771 197.738H83.7286L83.7259 201.442H76.9744L76.9688 209H72.5773Z" fill="white"/>
<rect width="68.5229" height="39.981" rx="5.79823" transform="matrix(1 0 0.000780664 1 239 178)" fill="#00CC44"/>
<path d="M247.576 209.024L253.344 198.339L247.919 188.232L253.149 188.23L254.968 192.151C255.202 192.64 255.436 193.161 255.67 193.714C255.904 194.245 256.17 194.84 256.468 195.499L256.596 195.499C256.829 194.84 257.052 194.245 257.265 193.713C257.498 193.16 257.722 192.639 257.934 192.15L259.591 188.227L264.597 188.225L259.212 198.56L264.956 209.018L259.726 209.02L257.652 204.779C257.397 204.226 257.141 203.684 256.886 203.153C256.652 202.6 256.386 202.005 256.088 201.367L255.96 201.367C255.727 202.005 255.493 202.601 255.259 203.154C255.026 203.685 254.792 204.227 254.558 204.78L252.615 209.022L247.576 209.024ZM267.775 209.016L267.767 188.224L272.455 188.222L272.461 205.06L280.689 205.057L280.69 209.011L267.775 209.016ZM289.724 209.391C288.363 209.391 287.002 209.147 285.642 208.659C284.302 208.149 283.1 207.395 282.037 206.396L284.715 203.174C285.459 203.811 286.278 204.332 287.171 204.736C288.085 205.139 288.978 205.341 289.85 205.34C290.828 205.34 291.55 205.159 292.018 204.797C292.507 204.436 292.751 203.947 292.751 203.33C292.751 203.011 292.676 202.735 292.527 202.501C292.4 202.267 292.198 202.065 291.921 201.895C291.666 201.704 291.347 201.534 290.964 201.386C290.603 201.216 290.199 201.035 289.752 200.844L287.041 199.697C286.51 199.485 285.989 199.208 285.478 198.868C284.989 198.528 284.543 198.135 284.138 197.689C283.756 197.221 283.447 196.69 283.213 196.095C282.979 195.478 282.862 194.788 282.861 194.022C282.861 193.172 283.041 192.374 283.403 191.63C283.764 190.865 284.274 190.205 284.933 189.652C285.591 189.078 286.367 188.631 287.26 188.312C288.174 187.993 289.173 187.833 290.257 187.833C291.469 187.832 292.66 188.065 293.829 188.533C295.02 189 296.062 189.68 296.956 190.572L294.565 193.539C293.884 193.008 293.204 192.604 292.523 192.328C291.843 192.031 291.088 191.882 290.259 191.883C289.451 191.883 288.803 192.053 288.314 192.394C287.846 192.713 287.613 193.17 287.613 193.765C287.613 194.084 287.688 194.36 287.836 194.594C288.007 194.807 288.23 195.009 288.506 195.2C288.804 195.37 289.144 195.54 289.527 195.71C289.91 195.858 290.324 196.028 290.771 196.219L293.45 197.303C294.726 197.812 295.726 198.514 296.449 199.406C297.193 200.299 297.566 201.479 297.566 202.946C297.567 203.817 297.386 204.647 297.025 205.433C296.685 206.199 296.175 206.879 295.495 207.475C294.836 208.049 294.018 208.517 293.04 208.879C292.062 209.22 290.957 209.39 289.724 209.391Z" fill="white"/>
</svg>
